<svg width="61" height="52" viewBox="0 0 61 52" fill="none" xmlns="http://www.w3.org/2000/svg">
<mask id="mask0_4160_2107" style="mask-type:alpha" maskUnits="userSpaceOnUse" x="2" y="6" width="52" height="38">
<path d="M24.0937 39.0181C27.0417 40.5419 30.7749 39.783 33.0128 37.1836C33.2426 36.9168 33.2384 36.7376 33.0015 36.4926C31.8071 35.2572 30.6265 34.0083 29.4331 32.7719C28.9657 32.2876 28.4082 31.9381 27.7324 31.8332C26.7683 31.6836 25.9531 31.9488 25.3422 32.7451C25.0408 33.1381 24.6778 33.4288 24.1532 33.4854C22.8667 33.6241 21.9236 32.3819 22.455 31.1997C22.9512 30.0958 23.9043 29.4529 24.9504 28.9643C26.9572 28.0272 29.7709 28.3684 31.6363 30.3291C32.7651 31.5157 33.9299 32.6683 35.0892 33.8256C35.6658 34.4012 35.8554 34.4227 36.5139 33.9429C37.4917 33.2304 37.8451 32.0948 36.8208 31.0825C35.3473 29.6264 33.9215 28.122 32.4812 26.6325C32.0845 26.2222 31.7523 25.7716 31.78 25.1549C31.8121 24.4425 32.2026 23.8745 32.876 23.6644C33.575 23.4464 34.1941 23.597 34.7232 24.1402C36.3028 25.762 37.928 27.3408 39.4702 28.9969C40.2246 29.807 41.1258 29.5328 41.6697 29.0218C42.3406 28.3915 42.3703 27.5612 41.6937 26.8481C40.7431 25.8461 39.7593 24.8756 38.7915 23.8899C38.1727 23.2596 37.5536 22.6295 36.9408 21.9934C36.2331 21.2585 36.2061 20.1604 36.8726 19.5329C37.5999 18.8481 38.6838 18.934 39.4149 19.6937C41.0295 21.3713 42.6566 23.0371 44.289 24.6976C44.8585 25.2769 45.3586 25.2988 45.9955 24.8253C46.5978 24.3775 46.7622 23.6786 46.4151 23.0424C46.2746 22.7847 46.0661 22.5833 45.863 22.3777C44.395 20.8928 42.928 19.4069 41.4573 17.9246C41.0851 17.5495 40.7767 17.1464 40.8061 16.5833C40.8428 15.8805 41.1627 15.3587 41.8259 15.0818C42.5259 14.7896 43.1629 14.9329 43.6882 15.4523C44.8989 16.6494 46.087 17.8692 47.288 19.0761C47.7978 19.5883 48.3124 20.096 48.8334 20.597C49.253 21.0005 49.6631 20.9238 49.9314 20.3901C50.1534 19.9484 50.189 19.4533 50.1768 18.9813C50.1311 17.2161 49.5115 15.6716 48.3177 14.3519C47.5063 13.4548 46.5654 12.7001 45.6927 11.8709C45.1923 11.3954 44.9574 10.8312 45.1734 10.1317C45.4596 9.2052 46.5256 8.71116 47.4207 9.10393C47.5668 9.16804 47.7175 9.24091 47.8371 9.34341C49.6442 10.8919 51.478 12.4234 52.5119 14.6464C53.4063 16.5696 53.7748 18.5775 53.3432 20.6854C52.9941 22.3902 51.9868 23.4944 50.2763 23.8909C49.906 23.9768 49.768 24.1647 49.7061 24.4918C49.2922 26.6799 47.9961 27.981 45.7916 28.361C45.5631 28.4004 45.4029 28.4935 45.3554 28.7375C44.9195 30.9761 43.463 32.1923 41.3255 32.6808C40.8735 32.7841 40.6796 32.9509 40.5512 33.4143C40.0376 35.2668 38.9834 36.6679 37.0527 37.2495C36.8598 37.3076 36.7262 37.4103 36.6289 37.6032C35.0299 40.7716 32.3417 42.4612 28.9337 42.9818C25.0709 43.5719 21.8346 42.2066 19.1398 39.45C15.9847 36.2225 12.8284 32.9963 9.67233 29.7698C8.33595 28.4035 6.98578 27.0505 5.66522 25.6691C3.24366 23.1362 2.34315 20.0981 2.73708 16.65C3.13257 13.1881 4.78606 10.4597 7.67709 8.53851C11.6354 5.90801 16.8019 6.33378 20.2233 9.56797C21.4579 10.735 22.5568 12.0451 23.7226 13.2852C25.2517 14.9116 26.7762 16.5425 28.3253 18.1497C28.6412 18.4774 28.6653 18.67 28.3312 19.0003C25.6248 21.6754 22.9378 24.3701 20.239 27.0529C18.9177 28.3664 17.587 29.6707 16.2525 30.9709C15.9901 31.2265 15.9765 31.4151 16.2476 31.6879C18.217 33.6696 20.1682 35.6694 22.1367 37.6521C22.6942 38.2137 23.3451 38.6586 24.0937 39.0181Z" fill="#FF9F1C"/>
</mask>
<g mask="url(#mask0_4160_2107)">
<rect x="9.297" y="-9.24374" width="33.4665" height="33.4665" transform="rotate(45.1762 9.297 -9.24374)" fill="#21BF73"/>
<path d="M22.2583 15.6751C23.0246 16.5092 23.7582 17.3188 24.5023 18.1187C24.848 18.4903 24.7911 18.8621 24.4595 19.1608C24.1405 19.448 23.7532 19.4194 23.4465 19.1014C22.0853 17.6903 20.7543 16.2493 19.3713 14.8599C17.8466 13.3283 16.5272 11.5392 14.54 10.5529C13.4756 10.0245 12.3063 9.70716 11.1093 9.26698C11.6863 9.22272 12.2635 9.09471 12.8227 9.14968C15.5952 9.42224 17.7786 10.7554 19.548 12.8858C20.3652 13.8698 21.3313 14.7301 22.2583 15.6751Z" fill="white"/>
</g>
<path d="M9.16651 6.37252C8.96917 6.42204 8.82387 6.54829 8.63623 6.48996C9.60104 4.46189 15.9105 2.51761 19.9273 2.9825C24.2144 3.47866 27.5275 5.68027 30.2925 8.91121C30.6916 8.51724 31.059 8.17602 31.4025 7.81219C33.8939 5.17273 36.9289 3.55325 40.5219 3.03119C46.6833 2.1359 52.5789 4.80312 55.9623 10.0659C58.1205 13.4229 58.84 17.1065 58.3088 21.0118C57.8257 24.563 56.1921 27.5589 53.5902 30.0498C51.1084 32.4256 48.6853 34.8626 46.2382 37.2746C43.149 40.3196 40.0695 43.3744 36.9686 46.4074C36.1347 47.223 35.3339 48.092 34.2199 48.5641C31.5988 49.6748 29.159 49.3791 26.9867 47.5364C25.7805 46.5131 24.7392 45.3075 23.658 44.1506C23.5647 44.0508 23.4963 43.9277 23.371 43.7517C23.9017 43.6981 24.3204 43.908 24.756 43.9705C25.7476 44.1127 26.7354 44.2144 27.7325 44.0476C28.0202 43.9994 28.248 44.072 28.4574 44.2904C28.7415 44.5867 29.0386 44.878 29.3654 45.1247C30.5829 46.0433 32.1959 46.0231 33.4115 45.0251C34.1194 44.4438 34.7616 43.7808 35.4157 43.1367C40.4588 38.1703 45.4843 33.186 50.5471 28.2398C51.7777 27.0376 52.9958 25.8422 53.7666 24.2849C55.5903 20.6004 55.6584 16.8753 53.8201 13.1907C51.7576 9.05652 48.3655 6.69423 43.7685 6.29196C39.9044 5.95384 36.5901 7.28931 33.9085 10.1345C32.8559 11.2514 31.7539 12.3217 30.6871 13.4255C30.4004 13.7221 30.1983 13.7164 29.9123 13.4126C28.6965 12.1215 27.4985 10.8103 26.2236 9.57913C23.7685 7.20812 20.8203 6.05766 17.3871 6.2197C17.0313 6.2365 16.6982 6.13698 16.3594 6.0577C13.9451 5.49266 11.5569 5.55209 9.16651 6.37252Z" fill="#21BF73"/>
<path d="M27.9242 21.9689C27.8923 21.1469 28.251 20.5239 28.8922 20.2386C29.5051 19.9659 30.2989 20.0766 30.7514 20.5323C31.2856 21.0701 31.3646 21.7294 31.1388 22.4203C30.9145 23.1063 30.2985 23.4516 29.4807 23.4024C28.6447 23.3522 28.1281 22.8871 27.9242 21.9689Z" fill="#2EC1AC"/>
<path opacity="0.1" d="M22.3037 15.2521C22.9466 15.9511 23.5621 16.6296 24.1863 17.2999C24.4763 17.6113 24.4286 17.9229 24.1504 18.1732C23.8828 18.4139 23.5579 18.3899 23.3006 18.1234C22.1586 16.9409 21.042 15.7333 19.8817 14.569C18.6026 13.2855 17.4956 11.7862 15.8286 10.9596C14.9355 10.5168 13.9546 10.2509 12.9503 9.88206C13.4344 9.84496 13.9187 9.73769 14.3878 9.78376C16.7137 10.0122 18.5455 11.1294 20.0299 12.9147C20.7155 13.7393 21.526 14.4602 22.3037 15.2521Z" fill="white"/>
<path d="M32.3958 37.0323C30.1603 39.6317 26.4313 40.3906 23.4866 38.8667C22.7388 38.5072 21.8816 38.0623 21.3247 37.5007C19.3584 35.518 18.9095 35.0685 18.9095 35.0685L18.7228 34.7886L17.4576 35.8273L16.1924 36.866C16.1924 36.866 16.9968 37.6698 18.5382 39.2986C20.0797 40.9275 24.4627 43.4205 28.3212 42.8304C31.7255 42.3098 34.4107 40.6202 36.0078 37.4519C36.1051 37.259 36.2385 37.1562 36.4312 37.0981C38.3597 36.5165 39.4128 35.1154 39.9258 33.263C40.0541 32.7995 40.2478 32.6327 40.6992 32.5294C42.8344 32.0409 44.2892 30.8247 44.7247 28.5861C44.7721 28.3421 44.9321 28.2491 45.1604 28.2097C47.3624 27.8297 48.6571 26.5285 49.0705 24.3404C49.1323 24.0133 49.2702 23.8254 49.6401 23.7396C51.3487 23.343 52.3549 22.2388 52.7036 20.534C53.1347 18.4262 52.7667 16.4182 51.8732 14.495C50.8404 12.272 49.0087 10.7405 47.2036 9.19204C47.0841 9.08953 46.9337 9.01667 46.7877 8.95256C45.8936 8.55979 44.8287 9.05383 44.5429 9.98037C44.3271 10.6798 44.5618 11.2441 45.0616 11.7195C45.9333 12.5487 46.8732 13.3034 47.6837 14.2005C48.8762 15.5203 49.4951 17.0648 49.5407 18.8299C49.553 19.3019 49.5174 19.7971 49.2956 20.2388C49.0276 20.7724 48.6179 20.8491 48.1988 20.4456C47.6784 19.9447 47.1644 19.437 46.6552 18.9247C45.4555 17.7178 44.2687 16.498 43.0594 15.3009C42.5347 14.7815 41.8983 14.6383 41.1991 14.9305C40.5366 15.2074 40.2171 15.7292 40.1804 16.4319C40.151 16.995 40.4592 17.3982 40.8309 17.7732C42.3 19.2555 43.7654 20.7414 45.2317 22.2264C45.4346 22.4319 45.6429 22.6333 45.7833 22.891C46.1299 23.5273 45.9657 24.2262 45.3641 24.6739C44.7278 25.1475 44.2284 25.1256 43.6595 24.5462C42.0289 22.8858 40.4036 21.22 38.7908 19.5423C38.0605 18.7826 36.9778 18.6967 36.2513 19.3816C35.5855 20.0091 35.6125 21.1071 36.3195 21.842C36.9081 22.4539 37.5027 23.0601 38.0972 23.6663L38.1681 23.7385C39.1348 24.7242 40.1175 25.6948 41.067 26.6967C41.7429 27.4099 41.7133 28.2401 41.0431 28.8705C40.4998 29.3815 39.5995 29.6556 38.8461 28.8455C37.3056 27.1894 35.6821 25.6107 34.1043 23.9889C33.5758 23.4456 32.9574 23.295 32.2592 23.5131C31.5865 23.7231 31.1964 24.2911 31.1644 25.0036C31.1367 25.6202 31.4685 26.0708 31.8648 26.4812C33.3035 27.9706 34.7277 29.475 36.1996 30.9312C37.2227 31.9434 36.8697 33.079 35.893 33.7915C35.2352 34.2714 35.0458 34.2498 34.4699 33.6742C33.3119 32.5169 32.1484 31.3643 31.0208 30.1778C29.1575 28.217 26.3469 27.8758 24.3424 28.813C23.2974 29.3015 22.3454 29.9445 21.8497 31.0483C21.3189 32.2305 22.261 33.4727 23.546 33.334C24.0701 33.2774 24.4326 32.9867 24.7338 32.5938C25.344 31.7974 26.1583 31.5322 27.1213 31.6818C27.7963 31.7867 28.3532 32.1362 28.8201 32.6205C30.0122 33.857 31.1914 35.1059 32.3846 36.3413C32.6212 36.5863 32.6253 36.7654 32.3958 37.0323Z" fill="#2EC1AC"/>
</svg>
